<mxfile host="Electron" agent="Mozilla/5.0 (Windows NT 10.0; Win64; x64) AppleWebKit/537.36 (KHTML, like Gecko) draw.io/28.1.2 Chrome/138.0.7204.243 Electron/37.4.0 Safari/537.36" version="28.1.2">
  <diagram name="Page-1" id="MAXsRW7apozDEzRiC-Gp">
    <mxGraphModel dx="1006" dy="1701" grid="1" gridSize="10" guides="1" tooltips="1" connect="1" arrows="1" fold="1" page="1" pageScale="1" pageWidth="850" pageHeight="1100" math="0" shadow="0">
      <root>
        <mxCell id="0" />
        <mxCell id="1" parent="0" />
        <mxCell id="ayr6GmwNHQ1uvb6nFKyW-2" value="" style="rounded=0;whiteSpace=wrap;html=1;fillColor=default;movable=0;resizable=0;rotatable=0;deletable=0;editable=0;locked=1;connectable=0;" vertex="1" parent="1">
          <mxGeometry x="230" y="40" width="500" height="540" as="geometry" />
        </mxCell>
        <mxCell id="ayr6GmwNHQ1uvb6nFKyW-4" style="edgeStyle=orthogonalEdgeStyle;rounded=0;orthogonalLoop=1;jettySize=auto;html=1;" edge="1" parent="1" source="ayr6GmwNHQ1uvb6nFKyW-3">
          <mxGeometry relative="1" as="geometry">
            <mxPoint x="75" y="560" as="targetPoint" />
          </mxGeometry>
        </mxCell>
        <mxCell id="ayr6GmwNHQ1uvb6nFKyW-3" value="Resident" style="shape=umlActor;verticalLabelPosition=bottom;verticalAlign=top;html=1;outlineConnect=0;" vertex="1" parent="1">
          <mxGeometry x="60" y="30" width="30" height="60" as="geometry" />
        </mxCell>
        <mxCell id="ayr6GmwNHQ1uvb6nFKyW-5" value="GreenBin" style="rounded=0;whiteSpace=wrap;html=1;fillColor=#60a917;strokeColor=#2D7600;fontColor=#ffffff;" vertex="1" parent="1">
          <mxGeometry x="340" y="-50" width="260" height="60" as="geometry" />
        </mxCell>
        <mxCell id="ayr6GmwNHQ1uvb6nFKyW-24" style="edgeStyle=orthogonalEdgeStyle;rounded=0;orthogonalLoop=1;jettySize=auto;html=1;" edge="1" parent="1" source="ayr6GmwNHQ1uvb6nFKyW-6">
          <mxGeometry relative="1" as="geometry">
            <mxPoint x="855" y="602.3529411764706" as="targetPoint" />
          </mxGeometry>
        </mxCell>
        <mxCell id="ayr6GmwNHQ1uvb6nFKyW-6" value="Waste Agency/Individual" style="shape=umlActor;verticalLabelPosition=bottom;verticalAlign=top;html=1;outlineConnect=0;" vertex="1" parent="1">
          <mxGeometry x="840" y="30" width="30" height="60" as="geometry" />
        </mxCell>
        <mxCell id="ayr6GmwNHQ1uvb6nFKyW-7" value="" style="rounded=0;whiteSpace=wrap;html=1;fillColor=#60a917;fontColor=#ffffff;strokeColor=#2D7600;" vertex="1" parent="1">
          <mxGeometry x="460" y="10" width="20" height="560" as="geometry" />
        </mxCell>
        <mxCell id="ayr6GmwNHQ1uvb6nFKyW-8" value="Register Account" style="endArrow=classic;html=1;rounded=0;" edge="1" parent="1">
          <mxGeometry width="50" height="50" relative="1" as="geometry">
            <mxPoint x="100" y="89.99959476854931" as="sourcePoint" />
            <mxPoint x="450" y="90" as="targetPoint" />
          </mxGeometry>
        </mxCell>
        <mxCell id="ayr6GmwNHQ1uvb6nFKyW-17" value="Login into account" style="endArrow=classic;html=1;rounded=0;entryX=0;entryY=0.268;entryDx=0;entryDy=0;entryPerimeter=0;" edge="1" parent="1">
          <mxGeometry width="50" height="50" relative="1" as="geometry">
            <mxPoint x="80" y="135.99959476854931" as="sourcePoint" />
            <mxPoint x="460" y="136.07999999999993" as="targetPoint" />
          </mxGeometry>
        </mxCell>
        <mxCell id="ayr6GmwNHQ1uvb6nFKyW-19" value="Allows User into system" style="html=1;verticalAlign=bottom;labelBackgroundColor=none;endArrow=block;endFill=1;dashed=1;rounded=0;" edge="1" parent="1">
          <mxGeometry width="160" relative="1" as="geometry">
            <mxPoint x="425" y="180" as="sourcePoint" />
            <mxPoint x="85" y="180" as="targetPoint" />
          </mxGeometry>
        </mxCell>
        <mxCell id="ayr6GmwNHQ1uvb6nFKyW-21" value="User request for bin pickup" style="endArrow=classic;html=1;rounded=0;entryX=0;entryY=0.268;entryDx=0;entryDy=0;entryPerimeter=0;" edge="1" parent="1">
          <mxGeometry width="50" height="50" relative="1" as="geometry">
            <mxPoint x="80" y="229.99959476854931" as="sourcePoint" />
            <mxPoint x="460" y="230.07999999999993" as="targetPoint" />
          </mxGeometry>
        </mxCell>
        <mxCell id="ayr6GmwNHQ1uvb6nFKyW-22" value="Logs In" style="endArrow=classic;html=1;rounded=0;" edge="1" parent="1">
          <mxGeometry width="50" height="50" relative="1" as="geometry">
            <mxPoint x="840" y="88.82" as="sourcePoint" />
            <mxPoint x="480" y="88.82" as="targetPoint" />
          </mxGeometry>
        </mxCell>
        <mxCell id="ayr6GmwNHQ1uvb6nFKyW-23" value="Logs In" style="endArrow=classic;html=1;rounded=0;" edge="1" parent="1">
          <mxGeometry width="50" height="50" relative="1" as="geometry">
            <mxPoint x="840" y="180" as="sourcePoint" />
            <mxPoint x="480" y="180" as="targetPoint" />
          </mxGeometry>
        </mxCell>
        <mxCell id="ayr6GmwNHQ1uvb6nFKyW-25" value="Allows User into system" style="html=1;verticalAlign=bottom;labelBackgroundColor=none;endArrow=block;endFill=1;dashed=1;rounded=0;" edge="1" parent="1">
          <mxGeometry width="160" relative="1" as="geometry">
            <mxPoint x="480" y="140" as="sourcePoint" />
            <mxPoint x="840" y="140" as="targetPoint" />
          </mxGeometry>
        </mxCell>
        <mxCell id="ayr6GmwNHQ1uvb6nFKyW-26" value="Sends Request Notifcation" style="html=1;verticalAlign=bottom;labelBackgroundColor=none;endArrow=block;endFill=1;dashed=1;rounded=0;" edge="1" parent="1">
          <mxGeometry width="160" relative="1" as="geometry">
            <mxPoint x="490" y="230" as="sourcePoint" />
            <mxPoint x="850" y="230" as="targetPoint" />
          </mxGeometry>
        </mxCell>
        <mxCell id="ayr6GmwNHQ1uvb6nFKyW-27" value="Views Requests" style="endArrow=classic;html=1;rounded=0;entryX=0;entryY=0.268;entryDx=0;entryDy=0;entryPerimeter=0;" edge="1" parent="1">
          <mxGeometry width="50" height="50" relative="1" as="geometry">
            <mxPoint x="80" y="279.9995947685493" as="sourcePoint" />
            <mxPoint x="460" y="280.0799999999999" as="targetPoint" />
          </mxGeometry>
        </mxCell>
        <mxCell id="ayr6GmwNHQ1uvb6nFKyW-28" value="Sends request to user" style="html=1;verticalAlign=bottom;labelBackgroundColor=none;endArrow=block;endFill=1;dashed=1;rounded=0;" edge="1" parent="1">
          <mxGeometry width="160" relative="1" as="geometry">
            <mxPoint x="460" y="340" as="sourcePoint" />
            <mxPoint x="90" y="340" as="targetPoint" />
          </mxGeometry>
        </mxCell>
        <mxCell id="ayr6GmwNHQ1uvb6nFKyW-29" value="Makes report" style="endArrow=classic;html=1;rounded=0;entryX=0;entryY=0.268;entryDx=0;entryDy=0;entryPerimeter=0;" edge="1" parent="1">
          <mxGeometry width="50" height="50" relative="1" as="geometry">
            <mxPoint x="80" y="389.9995947685493" as="sourcePoint" />
            <mxPoint x="460" y="390.0799999999999" as="targetPoint" />
          </mxGeometry>
        </mxCell>
        <mxCell id="ayr6GmwNHQ1uvb6nFKyW-30" value="Report sent success message" style="html=1;verticalAlign=bottom;labelBackgroundColor=none;endArrow=block;endFill=1;dashed=1;rounded=0;" edge="1" parent="1">
          <mxGeometry width="160" relative="1" as="geometry">
            <mxPoint x="450" y="460" as="sourcePoint" />
            <mxPoint x="80" y="460" as="targetPoint" />
          </mxGeometry>
        </mxCell>
        <mxCell id="ayr6GmwNHQ1uvb6nFKyW-31" value="Accept request or decline request" style="endArrow=classic;html=1;rounded=0;" edge="1" parent="1">
          <mxGeometry width="50" height="50" relative="1" as="geometry">
            <mxPoint x="850" y="280" as="sourcePoint" />
            <mxPoint x="490" y="280" as="targetPoint" />
          </mxGeometry>
        </mxCell>
        <mxCell id="ayr6GmwNHQ1uvb6nFKyW-32" value="Accept request or decline request" style="endArrow=classic;html=1;rounded=0;" edge="1" parent="1">
          <mxGeometry width="50" height="50" relative="1" as="geometry">
            <mxPoint x="850" y="390" as="sourcePoint" />
            <mxPoint x="490" y="390" as="targetPoint" />
          </mxGeometry>
        </mxCell>
        <mxCell id="ayr6GmwNHQ1uvb6nFKyW-33" value="Request acceptance or failure message" style="html=1;verticalAlign=bottom;labelBackgroundColor=none;endArrow=block;endFill=1;dashed=1;rounded=0;" edge="1" parent="1">
          <mxGeometry width="160" relative="1" as="geometry">
            <mxPoint x="490" y="340" as="sourcePoint" />
            <mxPoint x="850" y="340" as="targetPoint" />
          </mxGeometry>
        </mxCell>
        <mxCell id="ayr6GmwNHQ1uvb6nFKyW-34" value="Logs Out" style="endArrow=classic;html=1;rounded=0;entryX=0;entryY=0.268;entryDx=0;entryDy=0;entryPerimeter=0;" edge="1" parent="1">
          <mxGeometry width="50" height="50" relative="1" as="geometry">
            <mxPoint x="80" y="499.9995947685493" as="sourcePoint" />
            <mxPoint x="460" y="500.0799999999999" as="targetPoint" />
          </mxGeometry>
        </mxCell>
        <mxCell id="ayr6GmwNHQ1uvb6nFKyW-35" value="System Logs Out user" style="html=1;verticalAlign=bottom;labelBackgroundColor=none;endArrow=block;endFill=1;dashed=1;rounded=0;" edge="1" parent="1">
          <mxGeometry width="160" relative="1" as="geometry">
            <mxPoint x="450" y="540" as="sourcePoint" />
            <mxPoint x="80" y="540" as="targetPoint" />
          </mxGeometry>
        </mxCell>
        <mxCell id="ayr6GmwNHQ1uvb6nFKyW-36" value="View complain to account" style="endArrow=classic;html=1;rounded=0;" edge="1" parent="1">
          <mxGeometry width="50" height="50" relative="1" as="geometry">
            <mxPoint x="850" y="460" as="sourcePoint" />
            <mxPoint x="490" y="460" as="targetPoint" />
          </mxGeometry>
        </mxCell>
        <mxCell id="ayr6GmwNHQ1uvb6nFKyW-37" value="Logs out" style="endArrow=classic;html=1;rounded=0;" edge="1" parent="1">
          <mxGeometry width="50" height="50" relative="1" as="geometry">
            <mxPoint x="850" y="520" as="sourcePoint" />
            <mxPoint x="490" y="520" as="targetPoint" />
          </mxGeometry>
        </mxCell>
        <mxCell id="ayr6GmwNHQ1uvb6nFKyW-39" value="Logs user out" style="html=1;verticalAlign=bottom;labelBackgroundColor=none;endArrow=block;endFill=1;dashed=1;rounded=0;" edge="1" parent="1">
          <mxGeometry width="160" relative="1" as="geometry">
            <mxPoint x="490" y="550" as="sourcePoint" />
            <mxPoint x="850" y="550" as="targetPoint" />
          </mxGeometry>
        </mxCell>
      </root>
    </mxGraphModel>
  </diagram>
</mxfile>
